<svg xmlns="http://www.w3.org/2000/svg" xmlns:xlink="http://www.w3.org/1999/xlink" width="71" zoomAndPan="magnify" viewBox="0 0 53.25 76.499999" height="102" preserveAspectRatio="xMidYMid meet" version="1.0"><defs><clipPath id="b29fcd3b3e"><path d="M 31 0.921875 L 51.953125 0.921875 L 51.953125 32.722656 L 31 32.722656 Z M 31 0.921875 " clip-rule="nonzero"/></clipPath><clipPath id="c7bf8fb00a"><path d="M 0.363281 17 L 52.132812 17 L 52.132812 75.425781 L 0.363281 75.425781 Z M 0.363281 17 " clip-rule="nonzero"/></clipPath><clipPath id="d4e5e79489"><path d="M 47 45 L 52.132812 45 L 52.132812 48 L 47 48 Z M 47 45 " clip-rule="nonzero"/></clipPath></defs><g clip-path="url(#b29fcd3b3e)"><path fill="#f4e38c" d="M 62.140625 15.910156 C 60.976562 23.957031 54.757812 33.066406 46.628906 33.066406 C 38.496094 33.066406 34.015625 26.195312 31.90625 18.34375 C 29.765625 10.371094 36.5625 0.921875 50.792969 0.921875 C 58.921875 0.921875 63.347656 7.546875 62.140625 15.910156 " fill-opacity="1" fill-rule="nonzero"/></g><g clip-path="url(#c7bf8fb00a)"><path fill="#76b8ab" d="M 29.703125 20.8125 C 15.648438 20.8125 4.21875 32.246094 4.21875 46.300781 C 4.21875 60.355469 15.648438 71.789062 29.703125 71.789062 C 43.757812 71.789062 55.191406 60.355469 55.191406 46.300781 C 55.191406 32.246094 43.757812 20.8125 29.703125 20.8125 Z M 29.703125 75.605469 C 25.75 75.605469 21.910156 74.832031 18.296875 73.300781 C 14.804688 71.824219 11.671875 69.710938 8.980469 67.023438 C 6.292969 64.332031 4.179688 61.199219 2.703125 57.707031 C 1.175781 54.09375 0.398438 50.253906 0.398438 46.300781 C 0.398438 42.34375 1.175781 38.507812 2.703125 34.890625 C 4.179688 31.402344 6.292969 28.269531 8.980469 25.578125 C 11.671875 22.886719 14.804688 20.773438 18.296875 19.300781 C 21.910156 17.769531 25.75 16.996094 29.703125 16.996094 C 33.660156 16.996094 37.496094 17.769531 41.109375 19.300781 C 44.601562 20.773438 47.734375 22.886719 50.425781 25.578125 C 53.117188 28.269531 55.230469 31.402344 56.707031 34.890625 C 58.234375 38.507812 59.007812 42.34375 59.007812 46.300781 C 59.007812 50.253906 58.234375 54.09375 56.707031 57.707031 C 55.230469 61.195312 53.117188 64.332031 50.425781 67.023438 C 47.734375 69.710938 44.601562 71.824219 41.109375 73.300781 C 37.496094 74.832031 33.660156 75.605469 29.703125 75.605469 " fill-opacity="1" fill-rule="nonzero"/></g><path fill="#76b8ab" d="M 30.445312 28.023438 L 28.964844 28.023438 C 28.84375 28.023438 28.746094 27.925781 28.746094 27.804688 L 28.746094 23.257812 C 28.746094 23.136719 28.84375 23.039062 28.964844 23.039062 L 30.445312 23.039062 C 30.5625 23.039062 30.660156 23.136719 30.660156 23.257812 L 30.660156 27.804688 C 30.660156 27.925781 30.5625 28.023438 30.445312 28.023438 " fill-opacity="1" fill-rule="nonzero"/><path fill="#76b8ab" d="M 30.445312 69.558594 L 28.964844 69.558594 C 28.84375 69.558594 28.746094 69.460938 28.746094 69.34375 L 28.746094 64.792969 C 28.746094 64.675781 28.84375 64.574219 28.964844 64.574219 L 30.445312 64.574219 C 30.5625 64.574219 30.660156 64.675781 30.660156 64.792969 L 30.660156 69.34375 C 30.660156 69.460938 30.5625 69.558594 30.445312 69.558594 " fill-opacity="1" fill-rule="nonzero"/><path fill="#76b8ab" d="M 43.148438 33.898438 L 42.101562 32.855469 C 42.019531 32.769531 42.019531 32.628906 42.101562 32.546875 L 45.320312 29.332031 C 45.40625 29.246094 45.542969 29.246094 45.628906 29.332031 L 46.671875 30.375 C 46.757812 30.460938 46.757812 30.597656 46.671875 30.683594 L 43.457031 33.898438 C 43.371094 33.984375 43.234375 33.984375 43.148438 33.898438 " fill-opacity="1" fill-rule="nonzero"/><path fill="#76b8ab" d="M 13.78125 63.269531 L 12.734375 62.222656 C 12.648438 62.140625 12.648438 62 12.734375 61.914062 L 15.949219 58.699219 C 16.035156 58.617188 16.171875 58.617188 16.257812 58.699219 L 17.304688 59.746094 C 17.386719 59.832031 17.386719 59.96875 17.304688 60.054688 L 14.089844 63.269531 C 14.003906 63.355469 13.863281 63.355469 13.78125 63.269531 " fill-opacity="1" fill-rule="nonzero"/><g clip-path="url(#d4e5e79489)"><path fill="#76b8ab" d="M 47.980469 47.039062 L 47.980469 45.558594 C 47.980469 45.441406 48.078125 45.34375 48.195312 45.34375 L 52.746094 45.34375 C 52.863281 45.34375 52.964844 45.441406 52.964844 45.558594 L 52.964844 47.039062 C 52.964844 47.160156 52.863281 47.257812 52.746094 47.257812 L 48.195312 47.257812 C 48.078125 47.257812 47.980469 47.160156 47.980469 47.039062 " fill-opacity="1" fill-rule="nonzero"/></g><path fill="#76b8ab" d="M 6.445312 47.039062 L 6.445312 45.558594 C 6.445312 45.441406 6.542969 45.34375 6.660156 45.34375 L 11.210938 45.34375 C 11.328125 45.34375 11.425781 45.441406 11.425781 45.558594 L 11.425781 47.039062 C 11.425781 47.160156 11.328125 47.257812 11.210938 47.257812 L 6.660156 47.257812 C 6.542969 47.257812 6.445312 47.160156 6.445312 47.039062 " fill-opacity="1" fill-rule="nonzero"/><path fill="#76b8ab" d="M 42.101562 59.746094 L 43.148438 58.699219 C 43.234375 58.617188 43.371094 58.617188 43.457031 58.699219 L 46.671875 61.914062 C 46.757812 62 46.757812 62.140625 46.671875 62.222656 L 45.628906 63.269531 C 45.542969 63.355469 45.40625 63.355469 45.320312 63.269531 L 42.101562 60.054688 C 42.019531 59.96875 42.019531 59.832031 42.101562 59.746094 " fill-opacity="1" fill-rule="nonzero"/><path fill="#76b8ab" d="M 12.734375 30.375 L 13.78125 29.332031 C 13.863281 29.246094 14.003906 29.246094 14.089844 29.332031 L 17.304688 32.546875 C 17.386719 32.628906 17.386719 32.769531 17.304688 32.855469 L 16.257812 33.898438 C 16.171875 33.984375 16.035156 33.984375 15.949219 33.898438 L 12.734375 30.683594 C 12.648438 30.597656 12.648438 30.460938 12.734375 30.375 " fill-opacity="1" fill-rule="nonzero"/><path fill="#76b8ab" d="M 40.140625 54.285156 L 32.179688 46.324219 C 32.179688 46.316406 32.179688 46.308594 32.179688 46.300781 C 32.179688 45.746094 32 45.234375 31.691406 44.824219 L 31.691406 33.601562 C 31.691406 32.511719 30.796875 31.613281 29.703125 31.613281 C 28.609375 31.613281 27.714844 32.511719 27.714844 33.601562 L 27.714844 44.824219 C 27.410156 45.234375 27.226562 45.746094 27.226562 46.300781 C 27.226562 47.371094 27.90625 48.285156 28.859375 48.628906 L 37.328125 57.097656 C 38.101562 57.871094 39.367188 57.871094 40.140625 57.097656 C 40.914062 56.324219 40.914062 55.058594 40.140625 54.285156 " fill-opacity="1" fill-rule="nonzero"/></svg>